# xmcd CD database file
#
# Track frame offsets:
#	150
#	19817
#	30780
#	42235
#	53485
#	65092
#	81717
#	97650
#	111947
#	126915
#	138262
#	151170
#	162807
#	173212
#	183330
#	195005
#	207937
#	222200
#	233065
#	244657
#	256407
#	269180
#	281775
#	296855
#	308292
#
# Disc length: 4274 seconds
#
# Revision: 0
# Processed by: cddbd v1.4PL0 Copyright (c) Steve Scherf et al.
# Submitted via: CDex 1.50
#
DISCID=5d10b019
DTITLE=Marty Robbins - The Best of Marty Robbins Disc 1
DYEAR=1900
DGENRE=Country
TTITLE0=El Paso
TTITLE1=Singing the Blues
TTITLE2=The Story of My Life
TTITLE3=White Sport Coat (and a Pink Carnation)
TTITLE4=Among My Souvenirs
TTITLE5=Ballad of the Alamo
TTITLE6=My Woman, My Woman, My Wife
TTITLE7=Don't Worry
TTITLE8=I Walk Alone
TTITLE9=Ribbon of Darkness
TTITLE10=Devil Woman
TTITLE11=Oh, Virginia
TTITLE12=Bouquet of Roses
TTITLE13=Can't Help Falling in Love
TTITLE14=Lovesick Blues
TTITLE15=Tumbling Tumbleweeds
TTITLE16=Have I Told You Lately That I Love You?
TTITLE17=In the Valley of the Rio Grande
TTITLE18=You Made Me Love You
TTITLE19=The Mission in Guadelajara
TTITLE20=The Hanging tree
TTITLE21=Maria Elena
TTITLE22=As Time Goes By
TTITLE23=My Happiness
TTITLE24=Am I That Easy to Forget?
EXTD=
EXTT0=
EXTT1=
EXTT2=
EXTT3=
EXTT4=
EXTT5=
EXTT6=
EXTT7=
EXTT8=
EXTT9=
EXTT10=
EXTT11=
EXTT12=
EXTT13=
EXTT14=
EXTT15=
EXTT16=
EXTT17=
EXTT18=
EXTT19=
EXTT20=
EXTT21=
EXTT22=
EXTT23=
EXTT24=
PLAYORDER=
